<svg viewBox="0 0 240 140" fill="none" xmlns="http://www.w3.org/2000/svg">
  <!-- Left horn - organic flowing curve from center bottom sweeping up-left with tapered tips -->
  <path d="
    M120 115
    C118 108, 112 92, 100 78
    C88 64, 70 50, 52 40
    C38 32, 24 28, 16 30
    C12 31, 12 34, 16 35
    C24 37, 40 40, 58 48
    C76 56, 94 72, 108 92
    C114 100, 118 108, 120 115
    Z" fill="#c8a564"/>
  <!-- Right horn - mirror -->
  <path d="
    M120 115
    C122 108, 128 92, 140 78
    C152 64, 170 50, 188 40
    C202 32, 216 28, 224 30
    C228 31, 228 34, 224 35
    C216 37, 200 40, 182 48
    C164 56, 146 72, 132 92
    C126 100, 122 108, 120 115
    Z" fill="#c8a564"/>
</svg>
